<?xml version="1.0" encoding="UTF-8" standalone="no"?><!DOCTYPE svg PUBLIC "-//W3C//DTD SVG 1.1//EN" "http://www.w3.org/Graphics/SVG/1.1/DTD/svg11.dtd"><svg width="100%" height="100%" viewBox="0 0 3112 1441" version="1.1" xmlns="http://www.w3.org/2000/svg" xmlns:xlink="http://www.w3.org/1999/xlink" xml:space="preserve" xmlns:serif="http://www.serif.com/" style="fill-rule:evenodd;clip-rule:evenodd;stroke-linejoin:round;stroke-miterlimit:2;"><g><path id="Path-1" d="M1815.84,1.85c51.07,-1.1 106.83,0.8 156.93,-0.44c124.09,-4.23 220.4,4.06 313.45,94.84c118.05,115.19 104.02,223.27 104.67,372.07c0.52,126.21 -4.02,206.9 -96.55,303.94c-118.36,124.14 -262,97.78 -416.12,99.09l199.21,403.85c20.93,43.07 63.17,121.57 78.24,163.9c-86.76,1.19 -174.76,0.29 -261.62,0.02c-6.29,0 -9.45,-9.38 -12.31,-14.38c-23.64,-51.5 -55.57,-111.4 -81.43,-163.09l-224.97,-446.83c-29.64,-59.4 -62.79,-121.62 -90.42,-181.51c183.42,-4.99 369.56,1.75 553.41,-0.6c0,0 114.67,-1.54 114.67,-104.39c0,-38.36 -0.48,-127.98 -0.48,-168.36c0,-113.27 -72.64,-118.37 -212.09,-118.31l-262.83,0.81c40.93,-78.15 88.38,-163.63 132.07,-240.47l6.17,-0.15Z" style="fill:#fff;fill-rule:nonzero;"/><path id="Path-1-1" d="M1626.05,0.46c-51.24,99.09 -112.26,206.36 -166.69,304.76l-321.72,576.09l-158.47,285.57c-21.11,38.24 -59.33,112.5 -82.44,146.52c-40.75,0.95 -84.82,0.1 -125.83,0.1l-136.77,0.48c17.99,-41.12 67.45,-125.71 91.07,-168.83l183.31,-334.07l283.35,-513.48c52.25,-95.03 108.59,-203.86 163.36,-295.98c34.48,-2.89 100.34,-0.97 137.62,-1.26c44.4,-0.31 88.81,-0.28 133.21,0.11Z" style="fill:#fff;fill-rule:nonzero;"/><path id="Path-1-2" d="M2539.67,144.66c59.17,-0.3 72.29,3.54 112.24,43.11l287.02,286.71c45.26,45.06 103.76,99.32 143.14,147.5c20.4,32.36 27.98,73.24 28.98,109.19c2.93,106.21 -89.14,169.98 -160.28,240.74l-272.28,270.95c-76.74,76.55 -64.9,67.69 -174.83,70.4c0,-215.03 0.45,0.51 0.45,-214.52c15.55,-16.36 32.38,-32.29 48.36,-48.36c98.9,-99.4 198.71,-197.97 297.38,-297.57c2.95,-2.62 16.55,-22 14.38,-25.52c-21.71,-35.65 -104.59,-112.36 -130.07,-137.79c-77.59,-77.74 -155.62,-155.04 -234.07,-231.91c-2.67,-54.87 -2.6,-158.21 -0.5,-212.81c13.38,0.07 26.74,0.03 40.1,-0.13Z" style="fill:#fff;fill-rule:nonzero;"/><path id="Path-1-3" d="M614.22,352.46c-72.58,67.84 -144.89,143.36 -215.66,213.35c-27.76,27.46 -136.91,130.53 -148.74,155.67c7.31,20.57 307.92,312.83 347.58,350.5c-36.87,70.05 -75.85,140.59 -113.88,210.09c-8.09,-6.86 -16.66,-15.19 -24.52,-22.48l-292.88,-291.02c-42.01,-42.05 -90.54,-87.05 -128.5,-131.4c-48.64,-56.83 -48.84,-160.08 -7.93,-221.09c19.17,-28.59 56.85,-62.06 82.79,-87.62l131.85,-130.08l154.4,-153.2c36.72,-36.32 81.41,-92.04 131.99,-102.63c25.91,-1.99 57.11,-0.92 83.47,-0.69c0,211.47 0.94,-0.87 0.03,210.59Z" style="fill:#fff;fill-rule:nonzero;"/><path id="Path-1-4" d="M1371.29,829.62l171.07,397.45l51.02,120.28c9.57,22.64 20.19,46.43 28.21,69.57c4.12,11.88 4.69,11.81 0.83,21.62l-5.17,1.93c-27.12,-2.95 -64.38,-34.69 -86.74,-50.93c-35.59,-25.69 -71,-51.64 -106.19,-77.9c-23.96,-17.05 -49.44,-38.09 -74.55,-52.67c-24.05,2.71 -52.54,10.33 -76.66,15.86l-116.43,26.14c-20.44,4.55 -56.83,14.43 -76.69,12.33l-2.89,-4.26c-0.07,-15.83 39.86,-80.69 50.28,-99.45l107.2,-192.45l75.48,-135.07c12.22,-21.83 31.12,-57.83 45.21,-77.17c8.93,5.07 11.93,15.36 16,24.71Z" style="fill:#00ff0e;fill-rule:nonzero;"/></g></svg>